<mxfile host="app.diagrams.net" modified="2024-02-02T15:29:27.833Z" agent="Mozilla/5.0 (Windows NT 10.0; Win64; x64) AppleWebKit/537.36 (KHTML, like Gecko) Chrome/121.0.0.0 Safari/537.36 Edg/121.0.0.0" etag="kpOsVjFGcUNCmAtAyXhr" version="23.1.1" type="github">
  <diagram name="Page-1" id="ZiOnL4pqIfDic_KMbNlu">
    <mxGraphModel dx="1508" dy="889" grid="1" gridSize="10" guides="1" tooltips="1" connect="1" arrows="1" fold="1" page="1" pageScale="1" pageWidth="827" pageHeight="1169" math="0" shadow="0">
      <root>
        <mxCell id="0" />
        <mxCell id="1" parent="0" />
        <mxCell id="G9_3m4LLNvzFrlPoKNDU-1" value="问卷 Survey" style="rounded=1;whiteSpace=wrap;html=1;" vertex="1" parent="1">
          <mxGeometry x="40" y="40" width="120" height="60" as="geometry" />
        </mxCell>
        <mxCell id="G9_3m4LLNvzFrlPoKNDU-3" style="edgeStyle=orthogonalEdgeStyle;rounded=0;orthogonalLoop=1;jettySize=auto;html=1;exitX=0.5;exitY=0;exitDx=0;exitDy=0;entryX=0.5;entryY=1;entryDx=0;entryDy=0;" edge="1" parent="1" source="G9_3m4LLNvzFrlPoKNDU-2" target="G9_3m4LLNvzFrlPoKNDU-1">
          <mxGeometry relative="1" as="geometry" />
        </mxCell>
        <mxCell id="G9_3m4LLNvzFrlPoKNDU-2" value="props 传进来 surveyConfig" style="text;html=1;strokeColor=none;fillColor=none;align=center;verticalAlign=middle;whiteSpace=wrap;rounded=0;" vertex="1" parent="1">
          <mxGeometry x="40" y="120" width="120" height="30" as="geometry" />
        </mxCell>
        <mxCell id="G9_3m4LLNvzFrlPoKNDU-5" style="edgeStyle=orthogonalEdgeStyle;rounded=0;orthogonalLoop=1;jettySize=auto;html=1;exitX=0;exitY=0.5;exitDx=0;exitDy=0;entryX=1;entryY=0.5;entryDx=0;entryDy=0;" edge="1" parent="1" source="G9_3m4LLNvzFrlPoKNDU-4" target="G9_3m4LLNvzFrlPoKNDU-1">
          <mxGeometry relative="1" as="geometry" />
        </mxCell>
        <mxCell id="G9_3m4LLNvzFrlPoKNDU-6" value="用了 Survey&lt;br&gt;surveyConfig 从 flowStore 里来" style="edgeLabel;html=1;align=center;verticalAlign=middle;resizable=0;points=[];" vertex="1" connectable="0" parent="G9_3m4LLNvzFrlPoKNDU-5">
          <mxGeometry x="-0.0217" y="2" relative="1" as="geometry">
            <mxPoint as="offset" />
          </mxGeometry>
        </mxCell>
        <mxCell id="G9_3m4LLNvzFrlPoKNDU-4" value="Ditto" style="rounded=1;whiteSpace=wrap;html=1;" vertex="1" parent="1">
          <mxGeometry x="400" y="40" width="120" height="60" as="geometry" />
        </mxCell>
        <mxCell id="G9_3m4LLNvzFrlPoKNDU-8" style="edgeStyle=orthogonalEdgeStyle;rounded=0;orthogonalLoop=1;jettySize=auto;html=1;exitX=0.855;exitY=0;exitDx=0;exitDy=4.987994689941406;exitPerimeter=0;entryX=0.5;entryY=1;entryDx=0;entryDy=0;" edge="1" parent="1" source="G9_3m4LLNvzFrlPoKNDU-7" target="G9_3m4LLNvzFrlPoKNDU-4">
          <mxGeometry relative="1" as="geometry" />
        </mxCell>
        <mxCell id="G9_3m4LLNvzFrlPoKNDU-7" value="flowStore" style="shape=cylinder3;whiteSpace=wrap;html=1;boundedLbl=1;backgroundOutline=1;size=17.199981689453125;" vertex="1" parent="1">
          <mxGeometry x="355" y="150" width="90" height="85" as="geometry" />
        </mxCell>
        <mxCell id="G9_3m4LLNvzFrlPoKNDU-10" style="edgeStyle=orthogonalEdgeStyle;rounded=0;orthogonalLoop=1;jettySize=auto;html=1;exitX=0.5;exitY=0;exitDx=0;exitDy=0;entryX=0.5;entryY=1;entryDx=0;entryDy=0;entryPerimeter=0;" edge="1" parent="1" source="G9_3m4LLNvzFrlPoKNDU-9" target="G9_3m4LLNvzFrlPoKNDU-7">
          <mxGeometry relative="1" as="geometry">
            <mxPoint x="385" y="230" as="targetPoint" />
          </mxGeometry>
        </mxCell>
        <mxCell id="G9_3m4LLNvzFrlPoKNDU-9" value="编辑器里修改&lt;br&gt;Survey-form" style="rounded=1;whiteSpace=wrap;html=1;" vertex="1" parent="1">
          <mxGeometry x="325" y="260" width="120" height="60" as="geometry" />
        </mxCell>
        <mxCell id="G9_3m4LLNvzFrlPoKNDU-12" value="" style="shape=flexArrow;endArrow=classic;html=1;rounded=0;" edge="1" parent="1">
          <mxGeometry width="50" height="50" relative="1" as="geometry">
            <mxPoint x="255" y="210" as="sourcePoint" />
            <mxPoint x="325" y="200" as="targetPoint" />
          </mxGeometry>
        </mxCell>
        <mxCell id="G9_3m4LLNvzFrlPoKNDU-14" value="theme.primaryColor" style="rounded=1;whiteSpace=wrap;html=1;" vertex="1" parent="1">
          <mxGeometry x="450" y="260" width="140" height="60" as="geometry" />
        </mxCell>
        <mxCell id="G9_3m4LLNvzFrlPoKNDU-16" style="edgeStyle=orthogonalEdgeStyle;rounded=0;orthogonalLoop=1;jettySize=auto;html=1;exitX=0.25;exitY=0;exitDx=0;exitDy=0;entryX=0.855;entryY=1;entryDx=0;entryDy=-4.987994689941406;entryPerimeter=0;" edge="1" parent="1" source="G9_3m4LLNvzFrlPoKNDU-14" target="G9_3m4LLNvzFrlPoKNDU-7">
          <mxGeometry relative="1" as="geometry" />
        </mxCell>
      </root>
    </mxGraphModel>
  </diagram>
</mxfile>
